<svg xmlns="http://www.w3.org/2000/svg" width="2400" height="620" viewBox="0 0 2400 620"><defs><linearGradient id="sky" x2="0" y2="1"><stop stop-color="#83b8c7"/><stop offset="1" stop-color="#f6e4b6"/></linearGradient><linearGradient id="land" x2="0" y2="1"><stop stop-color="#acb788"/><stop offset="1" stop-color="#53796c"/></linearGradient></defs><path d="M0 365Q180 284 382 337T795 335T1241 345T1670 317T2105 345T2400 303V500H0Z" fill="#9fb399" stroke="#9fb399" stroke-width="0" stroke-linejoin="round" stroke-linecap="round"/><path d="M0 411Q198 321 452 394T893 389T1360 393T1761 387T2180 386T2400 388V525H0Z" fill="url(#land)" stroke="#647f69" stroke-width="0" stroke-linejoin="round" stroke-linecap="round"/><g transform="translate(600 286) scale(.8)"><path d="M0 36L81 6 165 36Z" fill="#d3cead" stroke="#899d8e" stroke-width="2" stroke-linejoin="round" stroke-linecap="round"/><rect x="7" y="114" width="150" height="12" rx="0" fill="#c0bea2" stroke="#293442" stroke-width="3"/><rect x="16" y="40" width="14" height="74" rx="0" fill="#d1cbae" stroke="#293442" stroke-width="3"/><rect x="13" y="37" width="20" height="7" rx="0" fill="#e5d9b6" stroke="#293442" stroke-width="3"/><rect x="56" y="40" width="14" height="74" rx="0" fill="#d1cbae" stroke="#293442" stroke-width="3"/><rect x="53" y="37" width="20" height="7" rx="0" fill="#e5d9b6" stroke="#293442" stroke-width="3"/><rect x="96" y="40" width="14" height="48" rx="0" fill="#d1cbae" stroke="#293442" stroke-width="3"/><rect x="93" y="37" width="20" height="7" rx="0" fill="#e5d9b6" stroke="#293442" stroke-width="3"/><rect x="136" y="40" width="14" height="74" rx="0" fill="#d1cbae" stroke="#293442" stroke-width="3"/><rect x="133" y="37" width="20" height="7" rx="0" fill="#e5d9b6" stroke="#293442" stroke-width="3"/></g><g transform="translate(1110 259) scale(.8)"><path d="M0 36L81 6 165 36Z" fill="#d3cead" stroke="#899d8e" stroke-width="2" stroke-linejoin="round" stroke-linecap="round"/><rect x="7" y="114" width="150" height="12" rx="0" fill="#c0bea2" stroke="#293442" stroke-width="3"/><rect x="16" y="40" width="14" height="74" rx="0" fill="#d1cbae" stroke="#293442" stroke-width="3"/><rect x="13" y="37" width="20" height="7" rx="0" fill="#e5d9b6" stroke="#293442" stroke-width="3"/><rect x="56" y="40" width="14" height="74" rx="0" fill="#d1cbae" stroke="#293442" stroke-width="3"/><rect x="53" y="37" width="20" height="7" rx="0" fill="#e5d9b6" stroke="#293442" stroke-width="3"/><rect x="96" y="40" width="14" height="48" rx="0" fill="#d1cbae" stroke="#293442" stroke-width="3"/><rect x="93" y="37" width="20" height="7" rx="0" fill="#e5d9b6" stroke="#293442" stroke-width="3"/><rect x="136" y="40" width="14" height="74" rx="0" fill="#d1cbae" stroke="#293442" stroke-width="3"/><rect x="133" y="37" width="20" height="7" rx="0" fill="#e5d9b6" stroke="#293442" stroke-width="3"/></g><g transform="translate(1720 286) scale(.8)"><path d="M0 36L81 6 165 36Z" fill="#d3cead" stroke="#899d8e" stroke-width="2" stroke-linejoin="round" stroke-linecap="round"/><rect x="7" y="114" width="150" height="12" rx="0" fill="#c0bea2" stroke="#293442" stroke-width="3"/><rect x="16" y="40" width="14" height="74" rx="0" fill="#d1cbae" stroke="#293442" stroke-width="3"/><rect x="13" y="37" width="20" height="7" rx="0" fill="#e5d9b6" stroke="#293442" stroke-width="3"/><rect x="56" y="40" width="14" height="74" rx="0" fill="#d1cbae" stroke="#293442" stroke-width="3"/><rect x="53" y="37" width="20" height="7" rx="0" fill="#e5d9b6" stroke="#293442" stroke-width="3"/><rect x="96" y="40" width="14" height="48" rx="0" fill="#d1cbae" stroke="#293442" stroke-width="3"/><rect x="93" y="37" width="20" height="7" rx="0" fill="#e5d9b6" stroke="#293442" stroke-width="3"/><rect x="136" y="40" width="14" height="74" rx="0" fill="#d1cbae" stroke="#293442" stroke-width="3"/><rect x="133" y="37" width="20" height="7" rx="0" fill="#e5d9b6" stroke="#293442" stroke-width="3"/></g></svg>