<svg xmlns="http://www.w3.org/2000/svg" width="1400" height="800" viewBox="0 0 1400 800"><defs><radialGradient id="sea"><stop stop-color="#547f88"/><stop offset="1" stop-color="#203f53"/></radialGradient></defs><path fill="url(#sea)" d="M0 0H1400V800H0Z"/><path d="M0 80q20 -8 40 0t40 0" fill="none" stroke="#a9c6bd18" stroke-width="2" stroke-linejoin="round" stroke-linecap="round"/><path d="M179 100q20 -8 40 0t40 0" fill="none" stroke="#a9c6bd18" stroke-width="2" stroke-linejoin="round" stroke-linecap="round"/><path d="M358 120q20 -8 40 0t40 0" fill="none" stroke="#a9c6bd18" stroke-width="2" stroke-linejoin="round" stroke-linecap="round"/><path d="M537 140q20 -8 40 0t40 0" fill="none" stroke="#a9c6bd18" stroke-width="2" stroke-linejoin="round" stroke-linecap="round"/><path d="M716 160q20 -8 40 0t40 0" fill="none" stroke="#a9c6bd18" stroke-width="2" stroke-linejoin="round" stroke-linecap="round"/><path d="M895 180q20 -8 40 0t40 0" fill="none" stroke="#a9c6bd18" stroke-width="2" stroke-linejoin="round" stroke-linecap="round"/><path d="M1074 200q20 -8 40 0t40 0" fill="none" stroke="#a9c6bd18" stroke-width="2" stroke-linejoin="round" stroke-linecap="round"/><path d="M1253 220q20 -8 40 0t40 0" fill="none" stroke="#a9c6bd18" stroke-width="2" stroke-linejoin="round" stroke-linecap="round"/><path d="M32 240q20 -8 40 0t40 0" fill="none" stroke="#a9c6bd18" stroke-width="2" stroke-linejoin="round" stroke-linecap="round"/><path d="M211 260q20 -8 40 0t40 0" fill="none" stroke="#a9c6bd18" stroke-width="2" stroke-linejoin="round" stroke-linecap="round"/><path d="M390 280q20 -8 40 0t40 0" fill="none" stroke="#a9c6bd18" stroke-width="2" stroke-linejoin="round" stroke-linecap="round"/><path d="M569 300q20 -8 40 0t40 0" fill="none" stroke="#a9c6bd18" stroke-width="2" stroke-linejoin="round" stroke-linecap="round"/><path d="M748 320q20 -8 40 0t40 0" fill="none" stroke="#a9c6bd18" stroke-width="2" stroke-linejoin="round" stroke-linecap="round"/><path d="M927 340q20 -8 40 0t40 0" fill="none" stroke="#a9c6bd18" stroke-width="2" stroke-linejoin="round" stroke-linecap="round"/><path d="M1106 360q20 -8 40 0t40 0" fill="none" stroke="#a9c6bd18" stroke-width="2" stroke-linejoin="round" stroke-linecap="round"/><path d="M1285 380q20 -8 40 0t40 0" fill="none" stroke="#a9c6bd18" stroke-width="2" stroke-linejoin="round" stroke-linecap="round"/><path d="M64 400q20 -8 40 0t40 0" fill="none" stroke="#a9c6bd18" stroke-width="2" stroke-linejoin="round" stroke-linecap="round"/><path d="M243 420q20 -8 40 0t40 0" fill="none" stroke="#a9c6bd18" stroke-width="2" stroke-linejoin="round" stroke-linecap="round"/><path d="M422 440q20 -8 40 0t40 0" fill="none" stroke="#a9c6bd18" stroke-width="2" stroke-linejoin="round" stroke-linecap="round"/><path d="M601 460q20 -8 40 0t40 0" fill="none" stroke="#a9c6bd18" stroke-width="2" stroke-linejoin="round" stroke-linecap="round"/><path d="M780 480q20 -8 40 0t40 0" fill="none" stroke="#a9c6bd18" stroke-width="2" stroke-linejoin="round" stroke-linecap="round"/><path d="M959 500q20 -8 40 0t40 0" fill="none" stroke="#a9c6bd18" stroke-width="2" stroke-linejoin="round" stroke-linecap="round"/><path d="M1138 520q20 -8 40 0t40 0" fill="none" stroke="#a9c6bd18" stroke-width="2" stroke-linejoin="round" stroke-linecap="round"/><path d="M1317 540q20 -8 40 0t40 0" fill="none" stroke="#a9c6bd18" stroke-width="2" stroke-linejoin="round" stroke-linecap="round"/><path d="M96 560q20 -8 40 0t40 0" fill="none" stroke="#a9c6bd18" stroke-width="2" stroke-linejoin="round" stroke-linecap="round"/><path d="M275 580q20 -8 40 0t40 0" fill="none" stroke="#a9c6bd18" stroke-width="2" stroke-linejoin="round" stroke-linecap="round"/><path d="M454 600q20 -8 40 0t40 0" fill="none" stroke="#a9c6bd18" stroke-width="2" stroke-linejoin="round" stroke-linecap="round"/><path d="M633 620q20 -8 40 0t40 0" fill="none" stroke="#a9c6bd18" stroke-width="2" stroke-linejoin="round" stroke-linecap="round"/><path d="M812 640q20 -8 40 0t40 0" fill="none" stroke="#a9c6bd18" stroke-width="2" stroke-linejoin="round" stroke-linecap="round"/><path d="M991 660q20 -8 40 0t40 0" fill="none" stroke="#a9c6bd18" stroke-width="2" stroke-linejoin="round" stroke-linecap="round"/><path d="M1170 680q20 -8 40 0t40 0" fill="none" stroke="#a9c6bd18" stroke-width="2" stroke-linejoin="round" stroke-linecap="round"/><path d="M1349 700q20 -8 40 0t40 0" fill="none" stroke="#a9c6bd18" stroke-width="2" stroke-linejoin="round" stroke-linecap="round"/><path d="M128 720q20 -8 40 0t40 0" fill="none" stroke="#a9c6bd18" stroke-width="2" stroke-linejoin="round" stroke-linecap="round"/><path d="M307 740q20 -8 40 0t40 0" fill="none" stroke="#a9c6bd18" stroke-width="2" stroke-linejoin="round" stroke-linecap="round"/><path d="M486 760q20 -8 40 0t40 0" fill="none" stroke="#a9c6bd18" stroke-width="2" stroke-linejoin="round" stroke-linecap="round"/><g transform="translate(0 17)"><path d="M155 283L199 190 303 168 381 110 502 149 546 220 646 190 721 218 805 183 870 231 968 219 1034 279 1207 307 1252 391 1209 454 1258 520 1159 583 1081 582 1027 677 932 635 873 689 783 627 715 655 650 602 575 639 515 551 438 563 397 489 272 465 235 407 162 395Z" fill="#112f4033" stroke="#112f4033" stroke-width="18" stroke-linejoin="round" stroke-linecap="round"/></g><path d="M155 283L199 190 303 168 381 110 502 149 546 220 646 190 721 218 805 183 870 231 968 219 1034 279 1207 307 1252 391 1209 454 1258 520 1159 583 1081 582 1027 677 932 635 873 689 783 627 715 655 650 602 575 639 515 551 438 563 397 489 272 465 235 407 162 395Z" fill="#b9c2a1" stroke="#739995" stroke-width="15" stroke-linejoin="round" stroke-linecap="round"/><path d="M155 283L199 190 303 168 381 110 502 149 546 220 646 190 721 218 805 183 870 231 968 219 1034 279 1207 307 1252 391 1209 454 1258 520 1159 583 1081 582 1027 677 932 635 873 689 783 627 715 655 650 602 575 639 515 551 438 563 397 489 272 465 235 407 162 395Z" fill="#c5c8a3" stroke="#e2d6ad" stroke-width="4" stroke-linejoin="round" stroke-linecap="round"/><path d="M212 334Q393 212 543 334T865 366T1174 377" fill="none" stroke="#94ac90" stroke-width="76" stroke-linejoin="round" stroke-linecap="round"/><path d="M388 473Q533 446 653 522T996 535" fill="none" stroke="#a8b493" stroke-width="64" stroke-linejoin="round" stroke-linecap="round"/><path d="M729 224Q659 315 754 365T855 452Q891 515 963 578" fill="none" stroke="#759da0" stroke-width="11" stroke-linejoin="round" stroke-linecap="round"/><g transform="translate(335 240) scale(1)"><path d="M-57 39L0 -49 56 39Z" fill="#8b9e89" stroke="#738b7e" stroke-width="2" stroke-linejoin="round" stroke-linecap="round"/><path d="M-24 -11L0 -49 25 -9 7 -17-2 -28-10 -13Z" fill="#e6dfbd" stroke="#e6dfbd" stroke-width="0" stroke-linejoin="round" stroke-linecap="round"/></g><g transform="translate(424 221) scale(0.75)"><path d="M-57 39L0 -49 56 39Z" fill="#8b9e89" stroke="#738b7e" stroke-width="2" stroke-linejoin="round" stroke-linecap="round"/><path d="M-24 -11L0 -49 25 -9 7 -17-2 -28-10 -13Z" fill="#e6dfbd" stroke="#e6dfbd" stroke-width="0" stroke-linejoin="round" stroke-linecap="round"/></g><g transform="translate(913 287) scale(1.1)"><path d="M-57 39L0 -49 56 39Z" fill="#8b9e89" stroke="#738b7e" stroke-width="2" stroke-linejoin="round" stroke-linecap="round"/><path d="M-24 -11L0 -49 25 -9 7 -17-2 -28-10 -13Z" fill="#e6dfbd" stroke="#e6dfbd" stroke-width="0" stroke-linejoin="round" stroke-linecap="round"/></g><g transform="translate(1040 454) scale(0.8)"><path d="M-57 39L0 -49 56 39Z" fill="#8b9e89" stroke="#738b7e" stroke-width="2" stroke-linejoin="round" stroke-linecap="round"/><path d="M-24 -11L0 -49 25 -9 7 -17-2 -28-10 -13Z" fill="#e6dfbd" stroke="#e6dfbd" stroke-width="0" stroke-linejoin="round" stroke-linecap="round"/></g><g transform="translate(581 481) scale(0.7)"><path d="M-57 39L0 -49 56 39Z" fill="#8b9e89" stroke="#738b7e" stroke-width="2" stroke-linejoin="round" stroke-linecap="round"/><path d="M-24 -11L0 -49 25 -9 7 -17-2 -28-10 -13Z" fill="#e6dfbd" stroke="#e6dfbd" stroke-width="0" stroke-linejoin="round" stroke-linecap="round"/></g><path d="M380 379Q490 354 593 406T795 407T1015 382" fill="none" stroke="#8c7f5d" stroke-width="5" stroke-linejoin="round" stroke-linecap="round" stroke-dasharray="4 15"/><path d="M260 290l-10 18h20Z" fill="#69866c" stroke="#69866c" stroke-width="1" stroke-linejoin="round" stroke-linecap="round"/><path d="M397 337l-10 18h20Z" fill="#69866c" stroke="#69866c" stroke-width="1" stroke-linejoin="round" stroke-linecap="round"/><path d="M534 384l-10 18h20Z" fill="#69866c" stroke="#69866c" stroke-width="1" stroke-linejoin="round" stroke-linecap="round"/><path d="M671 431l-10 18h20Z" fill="#69866c" stroke="#69866c" stroke-width="1" stroke-linejoin="round" stroke-linecap="round"/><path d="M808 478l-10 18h20Z" fill="#69866c" stroke="#69866c" stroke-width="1" stroke-linejoin="round" stroke-linecap="round"/><path d="M945 295l-10 18h20Z" fill="#69866c" stroke="#69866c" stroke-width="1" stroke-linejoin="round" stroke-linecap="round"/><path d="M1082 342l-10 18h20Z" fill="#69866c" stroke="#69866c" stroke-width="1" stroke-linejoin="round" stroke-linecap="round"/><path d="M319 389l-10 18h20Z" fill="#69866c" stroke="#69866c" stroke-width="1" stroke-linejoin="round" stroke-linecap="round"/><path d="M456 436l-10 18h20Z" fill="#69866c" stroke="#69866c" stroke-width="1" stroke-linejoin="round" stroke-linecap="round"/><path d="M593 483l-10 18h20Z" fill="#69866c" stroke="#69866c" stroke-width="1" stroke-linejoin="round" stroke-linecap="round"/><path d="M730 300l-10 18h20Z" fill="#69866c" stroke="#69866c" stroke-width="1" stroke-linejoin="round" stroke-linecap="round"/><path d="M867 347l-10 18h20Z" fill="#69866c" stroke="#69866c" stroke-width="1" stroke-linejoin="round" stroke-linecap="round"/><path d="M1004 394l-10 18h20Z" fill="#69866c" stroke="#69866c" stroke-width="1" stroke-linejoin="round" stroke-linecap="round"/><path d="M1141 441l-10 18h20Z" fill="#69866c" stroke="#69866c" stroke-width="1" stroke-linejoin="round" stroke-linecap="round"/><path d="M378 488l-10 18h20Z" fill="#69866c" stroke="#69866c" stroke-width="1" stroke-linejoin="round" stroke-linecap="round"/><path d="M515 305l-10 18h20Z" fill="#69866c" stroke="#69866c" stroke-width="1" stroke-linejoin="round" stroke-linecap="round"/><path d="M652 352l-10 18h20Z" fill="#69866c" stroke="#69866c" stroke-width="1" stroke-linejoin="round" stroke-linecap="round"/><path d="M789 399l-10 18h20Z" fill="#69866c" stroke="#69866c" stroke-width="1" stroke-linejoin="round" stroke-linecap="round"/><path d="M926 446l-10 18h20Z" fill="#69866c" stroke="#69866c" stroke-width="1" stroke-linejoin="round" stroke-linecap="round"/><path d="M1063 493l-10 18h20Z" fill="#69866c" stroke="#69866c" stroke-width="1" stroke-linejoin="round" stroke-linecap="round"/><path d="M300 310l-10 18h20Z" fill="#69866c" stroke="#69866c" stroke-width="1" stroke-linejoin="round" stroke-linecap="round"/><path d="M437 357l-10 18h20Z" fill="#69866c" stroke="#69866c" stroke-width="1" stroke-linejoin="round" stroke-linecap="round"/><path d="M574 404l-10 18h20Z" fill="#69866c" stroke="#69866c" stroke-width="1" stroke-linejoin="round" stroke-linecap="round"/><path d="M711 451l-10 18h20Z" fill="#69866c" stroke="#69866c" stroke-width="1" stroke-linejoin="round" stroke-linecap="round"/><g transform="translate(1250 140)"><path d="M0 -44L10 -10 44 0 10 10 0 44-10 10-44 0-10 -10Z" fill="#d5caa0" stroke="#d5caa0" stroke-width="2" stroke-linejoin="round" stroke-linecap="round"/><path d="M0 -44V44M-44 0H44" fill="none" stroke="#355363" stroke-width="2" stroke-linejoin="round" stroke-linecap="round"/><ellipse cx="0" cy="0" rx="5" ry="5" fill="#355363" stroke="#293442" stroke-width="3"/></g></svg>