<svg xmlns="http://www.w3.org/2000/svg" width="132" height="180" viewBox="0 0 132 180"><ellipse cx="65" cy="167" rx="53" ry="10" fill="#253e452c" stroke="#293442" stroke-width="0"/><path d="M32 159L38 68 94 68 101 159Z" fill="#c1baa1" stroke="#293442" stroke-width="3" stroke-linejoin="round" stroke-linecap="round"/><path d="M73 70L94 70 101 159 74 159Z" fill="#9c9f92" stroke="#293442" stroke-width="3" stroke-linejoin="round" stroke-linecap="round"/><rect x="27" y="155" width="79" height="12" rx="3" fill="#e6d9b6" stroke="#293442" stroke-width="3"/><path d="M36 114L97 114M36 139H100M62 89V112M62 115V139" fill="none" stroke="#8e9288" stroke-width="2" stroke-linejoin="round" stroke-linecap="round"/><rect x="57" y="87" width="18" height="29" rx="8" fill="#425668" stroke="#293442" stroke-width="3"/><path d="M25 69V48H40V59H53V48H68V59H81V48H97V59H110V74Z" fill="#ede0b9" stroke="#293442" stroke-width="3" stroke-linejoin="round" stroke-linecap="round"/><path d="M47 44L78 21 96 43" fill="none" stroke="#765443" stroke-width="6" stroke-linejoin="round" stroke-linecap="round"/><path d="M47 44H96" fill="none" stroke="#f5e3b4" stroke-width="2" stroke-linejoin="round" stroke-linecap="round"/><path d="M57 36L114 24" fill="none" stroke="#b69b61" stroke-width="5" stroke-linejoin="round" stroke-linecap="round"/><path d="M109 20L125 21 113 31Z" fill="#e5eeea" stroke="#293442" stroke-width="3" stroke-linejoin="round" stroke-linecap="round"/></svg>